# xmcd CD database file
#
# Track frame offsets:
#	150
#	13096
#	27332
#	41056
#	51825
#	63131
#	78144
#	88939
#	103296
#	117313
#	128080
#	141879
#	152706
#	167476
#	178820
#	189000
#	198966
#	211065
#	223366
#	237467
#	248911
#	260713
#	272237
#	282926
#	296192
#
# Disc length: 4118 seconds
#
# Revision: 0
# Processed by: cddbd v1.4PL0 Copyright (c) Steve Scherf et al.
# Submitted via: CDex 1.51
#
DISCID=7c101419
DTITLE=Billy Ward and the Dominos - The Very Best of Billy Ward and the Dominos
DYEAR=1900
DGENRE=Blues
TTITLE0=Chicken Blues
TTITLE1=No! Says My Heart
TTITLE2=Do Something for Me
TTITLE3=Weeping Willow Blues
TTITLE4=Sixty Minute Man
TTITLE5=Harbor Lights
TTITLE6=That's What You're Doing to Me
TTITLE7=I Am With You
TTITLE8=These Foolish Things Remind Me of You
TTITLE9=Have Mercy Baby
TTITLE10=Then the Swallows Come Back to Capistrano
TTITLE11=I'd Be Satisfied
TTITLE12=The Bells
TTITLE13=Pedal Pushin' Papa
TTITLE14=Yours Forever
TTITLE15=You Can't Keep a Good Man Down
TTITLE16=Rags to Riches
TTITLE17=Christmas in Heaven
TTITLE18=Until the Real Thing Comes Along
TTITLE19=Three Coins in the Fountain
TTITLE20=I Really Don't Want to Know
TTITLE21=Can't Do Sixty No More
TTITLE22=Give Me You
TTITLE23=May I Never Love Again
TTITLE24=Over the Rainbow
EXTD=
EXTT0=
EXTT1=
EXTT2=
EXTT3=
EXTT4=
EXTT5=
EXTT6=
EXTT7=
EXTT8=
EXTT9=
EXTT10=
EXTT11=
EXTT12=
EXTT13=
EXTT14=
EXTT15=
EXTT16=
EXTT17=
EXTT18=
EXTT19=
EXTT20=
EXTT21=
EXTT22=
EXTT23=
EXTT24=
PLAYORDER=
